<svg id="Layer_1" enable-background="new 0 0 256 256" height="512" viewBox="0 0 256 256" width="512" xmlns="http://www.w3.org/2000/svg"><g id="Layer_15"><g><path d="m202.1 13.2h-166.8c-.8 0-1.4.6-1.4 1.4v207.9c0 1.2 1 2.2 2.2 2.2h165.2c1.2 0 2.2-1 2.2-2.2v-207.9c0-.7-.7-1.4-1.4-1.4z" fill="#edf4fc"/><path d="m220.8 31.3h-17.3v191.2c0 1.2-1 2.2-2.2 2.2h-148.7v15.9c0 1.2 1 2.2 2.2 2.2h165.2c1.2 0 2.2-1 2.2-2.2v-207.9c0-.8-.6-1.4-1.4-1.4z" fill="#c7d7e5"/><path d="m220.8 31.3h-17.3v18.1h18.7v-16.7c0-.8-.6-1.4-1.4-1.4z" fill="#3a70bf"/><path d="m202.1 13.2h-166.8c-.8 0-1.4.6-1.4 1.4v16.7h169.6v-16.7c0-.7-.7-1.4-1.4-1.4z" fill="#5290db"/><path d="m148.3 78.9c0-1.3-.9-2.4-2.1-2.8-9.4-2.7-17.5-5.7-23.5-12-2-2.2-5.5-2.3-7.6-.3-.1.1-.2.2-.3.3-5.9 6.3-14 9.3-23.5 12-1.3.4-2.1 1.5-2.1 2.8v14.3c0 17.2 9.5 33 24.8 41.9 2.9 1.7 6.5 1.7 9.5 0 15.3-8.9 24.8-24.7 24.8-41.9z" fill="#87d147"/><path d="m113.6 111-8-8c-2-1.9-2-5.1-.1-7.1s5.1-2 7.1-.1c0 0 .1.1.1.1l4.5 4.5 9.8-9.8c2-1.9 5.1-1.9 7.1.1 1.9 1.9 1.9 5.1 0 7l-13.5 13.3c-1.9 1.9-5.1 1.9-7 0z" fill="#edf4fc"/><path d="m83.2 153.2h71.2c4.3 0 7.8 3.5 7.8 7.8 0 4.3-3.5 7.8-7.8 7.8h-71.2c-4.3 0-7.8-3.5-7.8-7.8 0-4.3 3.5-7.8 7.8-7.8z" fill="#9be5f9"/><path d="m154.3 153.2h-8.8v15.6h8.8c4.3 0 7.8-3.5 7.8-7.8s-3.5-7.8-7.8-7.8z" fill="#3caadc"/><path d="m238.1 16.2h-2.1v-2.1c0-1.5-1.3-2.8-2.8-2.8s-2.8 1.3-2.8 2.8v2.1h-2.1c-1.5 0-2.8 1.3-2.8 2.8s1.3 2.8 2.8 2.8h2.1v2.1c0 1.5 1.3 2.8 2.8 2.8s2.8-1.3 2.8-2.8v-2.1h2.1c1.5 0 2.8-1.3 2.8-2.8.1-1.5-1.2-2.8-2.8-2.8z" fill="#70d6f9"/><path d="m43.8 247.8c-4-.7-7.1-3.8-7.9-7.7 0-.1-.1-.2-.2-.1-.1 0-.1.1-.1.1-.8 4-3.9 7-7.9 7.7-.1 0-.2.1-.1.2 0 .1.1.1.1.1 4 .7 7.1 3.8 7.9 7.7 0 .1.1.2.2.1.1 0 .1-.1.1-.1.8-4 3.9-7 7.9-7.7.1 0 .2-.1.1-.2 0-.1 0-.1-.1-.1z" fill="#ef4460"/><circle cx="212" cy="3" fill="#87d147" r="3"/><circle cx="233" cy="93" fill="#fc8c48" r="3"/><circle cx="18" cy="218" fill="#f5c84c" r="3"/><circle cx="49.5" cy="21.9" r="2.9"/><circle cx="59.7" cy="21.9" r="2.9"/><circle cx="69.9" cy="21.9" r="2.9"/><path d="m54.8 245.3h165.2c2.6 0 4.7-2.1 4.7-4.7v-207.9c0-2.1-1.7-3.9-3.9-3.9h-14.8v-14.2c0-2.1-1.7-3.9-3.9-3.9h-166.8c-2.1 0-3.9 1.7-3.9 3.9v207.9c0 2.6 2.1 4.7 4.7 4.7h14v13.4c0 2.6 2.1 4.7 4.7 4.7zm151.2-211.5h13.7v13.1h-13.7zm0 188.7v-170.6h13.7v188.4h-164.6v-13.1h146.1c2.7 0 4.8-2.1 4.8-4.7zm-169.6-206.8h164.6v13.1h-164.6zm0 206.5v-188.4h164.6v188.4z"/><path d="m124.8 178h-12c-1.4 0-2.5 1.1-2.5 2.5s1.1 2.5 2.5 2.5h12c1.4 0 2.5-1.1 2.5-2.5s-1.2-2.5-2.5-2.5z"/><path d="m112.8 137.3c3.7 2.2 8.3 2.2 12 0 16.3-9.5 26-26 26-44.1v-14.3c0-2.4-1.6-4.5-3.9-5.2-9.9-2.9-17.1-5.8-22.3-11.3-3-3.2-8-3.4-11.2-.4-.1.1-.3.3-.4.4-5.2 5.5-12.4 8.4-22.3 11.3-2.3.7-3.9 2.8-3.9 5.2v14.3c-.1 18.1 9.7 34.6 26 44.1zm-21.1-58.4c0-.2.1-.4.3-.4 8.8-2.5 17.9-5.6 24.6-12.7 1.1-1.2 2.9-1.3 4.1-.2l.2.2c6.6 7.1 15.8 10.1 24.6 12.7.2.1.3.2.3.4v14.3c0 16.3-8.8 31.1-23.6 39.7-2.1 1.2-4.8 1.2-6.9 0-14.8-8.6-23.6-23.5-23.6-39.7z"/><path d="m83.2 171.3h71.2c5.7 0 10.3-4.6 10.3-10.3s-4.6-10.3-10.3-10.3h-71.2c-5.7 0-10.3 4.6-10.3 10.3s4.6 10.3 10.3 10.3zm64.9-15.6h6.3c2.9 0 5.3 2.4 5.3 5.3s-2.4 5.3-5.3 5.3h-6.3zm-64.9 0h59.9v10.6h-59.9c-2.9 0-5.3-2.4-5.3-5.3s2.4-5.3 5.3-5.3z"/><path d="m122.4 112.8 13.3-13.3c3-2.9 3-7.7.1-10.6-2.9-3-7.7-3-10.6-.1 0 0-.1.1-.1.1l-8 8-2.7-2.7c-2.9-3-7.7-3-10.6-.1s-3 7.7-.1 10.6c0 0 .1.1.1.1l8 8c2.9 2.9 7.7 2.9 10.6 0zm-15.1-15.1c1-1 2.6-1 3.5 0l4.5 4.5c1 1 2.6 1 3.5 0l9.8-9.8c1-.9 2.5-.9 3.5 0 1 1 1 2.6 0 3.5l-13.3 13.3c-1 .9-2.5.9-3.5 0l-8-8c-.9-1-.9-2.5 0-3.5z"/></g></g></svg>